<svg viewBox="0 0 649 413" fill="none" xmlns="http://www.w3.org/2000/svg"><path d="M308.761 205.23c-11.277-23.639-25.496-45.527-41.093-66.563-11.748-15.844-26.824-34.906-46.444-41.522-23.331-7.867-53.764-1.589-76.194 6.207-24.149 8.393-43.06 21.268-51.474 46.016-6.854 20.158-3.717 41.668-12.093 61.212-4.199 9.799-5.778 18.585-5.778 29.322" stroke="currentColor" stroke-width="2" stroke-linecap="round" stroke-linejoin="round"/><path d="M304.909 203.303c54.212-34.153 107.375-72.919 166.514-98.239 9.375-4.013 24.018-11.433 33.817-4.708 16.13 11.07 34.378 28.153 43.447 45.802 5.202 10.122-34.433 11.563-38.311 12.199-28.94 4.753-58.161 11.256-83.257 27.182-20.344 12.911-37.081 28.711-59.071 39.381-4.917 2.386-28.467 8.198-25.898 15.41 5.923 16.623 12.413 28.584 12.842 46.872.069 2.935 1.461 8.867-2.14 10.488-10.815 4.867-26.401 3.915-37.669 4.066-47.138.634-92.536 3.314-139.333 9.418-38.551 5.028-77.316 7.334-116.217 5.778-21.615-.864-7.636-49.38-5.137-63.352 3.466-19.374 14.14-32.96 34.673-32.96" stroke="currentColor" stroke-width="2" stroke-linecap="round" stroke-linejoin="round"/><path d="M381.96 311.174c-62.19-14.98-132.009-26.222-195.515-14.34-42.735 7.995-85.98 15.502-127.454 28.786-14.98 4.799-29.377 10.676-43.662 17.23-10.616 4.871-21.068 9.212-6.955 18.62 16.701 11.135 37.142 18.701 55.433 26.754 26.2 11.535 51.789 18.009 80.474 19.476 21.844 1.118 43.559-.499 65.386-.856 26.205-.428 52.363 1.491 78.548 2.14 32.7.812 82.92 12.268 107.014-17.122 13.656-16.657-7.827-46.457-20.332-57.787-13.311-12.061-31.362-18.069-48.799-20.975" stroke="currentColor" stroke-width="2" stroke-linecap="round" stroke-linejoin="round"/><path d="M353.065 349.699c-13.228-5.597-45.021-22.284-55.433-2.783-12.216 22.882 2.546 50.065 24.613 58.751 39.931 15.718 40.633-37.331 17.337-55.968M264.458 311.174c-13.504 5.401-31.474 13.741-32.747 30.713-.824 10.993 18.272 32.869 30.499 25.79 9.216-5.335 9.876-22.736 7.598-31.676-2.207-8.666-9.174-10.377-16.908-11.344M220.154 349.699c-13.06 2.612-47.444 7.8-40.023 29.322 5.236 15.185 31.811 29.508 47.514 25.041 16.668-4.742 7.813-25.282 1.07-34.031-6.054-7.856-12.889-8.775-22.044-8.775M160.44 332.362c-19.846-12.778-68.424-34.951-89.142-14.232-17.858 17.857 3.441 51.644 19.797 62.817 21.623 14.77 38.392-22.551 43.662-37.883 3.664-10.658 1.1-12.284-7.063-18.407M503.313 97.36c9.142 19.501 17.325 32.153 38.74 37.668 5.229 1.347 13.88 5.046 17.55-1.07 5.207-8.679 5.425-19.275-2.997-25.683-6.924-5.269-40.07-13.95-47.086-5.351-12.848 15.749 10.652 33.447 23.115 36.92 21.577 6.013 23.756-21.672 14.019-34.887-7.41-10.057-46.824-20.538-40.13 2.89 4.677 16.37 35.076 39.042 51.688 25.362 18.801-15.484-32.657-26.218-41.415-26.218M555.322 81.95c5.064-27.343 10.46-54.494 19.263-80.903M586.143 89.654c17.338-1.475 34.653-2.732 52.008-3.852M615.036 133.958c10.907-2.86 21.749-5.389 32.746-7.705" stroke="currentColor" stroke-width="2" stroke-linecap="round" stroke-linejoin="round"/></svg>