
<svg viewBox="0 0 400 400" fill="none" xmlns="http://www.w3.org/2000/svg"><path d="M283.891 72.407c-25.304-1.8-50.457-1.703-75.799-1.703-24.257 0-48.441-1.704-72.723-1.704-17.896 0-35.916-.073-53.656 2.555-6.562.972-12.125 4.195-18.31 5.962-3.933 1.123-5.3 7.596-5.205 11.072.234 8.677 4.765 13.999 11.64 18.926 11.54 8.27 28.414 8.632 42.015 9.841 18.81 1.672 38.374.189 57.251.189 41.082 0 82.018-1.366 122.877-5.535 12.669-1.293 26.81.304 39.13-2.981 3.52-.939 6.712-2.202 8.564-5.536 8.351-15.032-36.202-18.963-42.82-20.204-10.064-1.887-21.836-2.969-30.85-7.475M341.803 100.512c0 7.454.674 15.291-.473 22.664-1.693 10.885-5.702 21.45-7.145 32.268-2.457 18.43-3.454 37.178-3.454 55.785 0 17.617 6.814 34.648 6.814 52.283v20.961" stroke="currentColor" stroke-linecap="round" stroke-linejoin="round"/><path d="M58.197 86.885c0 16.679-.809 33.55.852 50.154 1.72 17.212 5.249 34.144 8.09 51.195 4.011 24.064 7.24 47.989 7.24 72.345v50.296M336.693 287.028c-.717 3.768-.851 7.279-.851 11.072" stroke="currentColor" stroke-linecap="round" stroke-linejoin="round"/><path d="M335.842 281.066c1.184 6.066 2.23 14.803-2.555 19.588-9.243 9.244-22.749 12.5-35.439 14.006-19.495 2.313-38.656 6.501-58.292 8.138-9.644.803-19.257 2.62-28.909 3.596-9.51.961-19.129.841-28.579 1.94-10.141 1.179-20.423-.328-30.565.851-9.383 1.091-19.331 1.98-28.768 2.129-5.794.092-11.183-.725-16.797-2.129-5.307-1.326-11.008-.273-16.229-1.466-4.38-1.002-11.058-3.194-13.437-7.476-1.554-2.798-5.3-8.902-5.3-11.924M141.352 183.386c-4.613-.9-17.857 2.068-21.856 5.667-4.046.809-7.111 1.652-5.068 5.736 1.354 2.708 5.566 6.649 8.622 7.009 1.773.209 3.879 1.613 5.757 2.03 1.948.433 2.954 3.177 4.255 4.478" stroke="currentColor" stroke-linecap="round" stroke-linejoin="round"/><path d="M139.069 189.782c-.989-.386-2.838-1.473-4.005-.89-.774.388-1.073 1.282-2.002 1.391-1.478.174 2.437.446 2.725.528.685.196 2.782 1.288 2.782-.278 0-1.309-2.003-1.922-2.003-.25M133.563 208.806c.098 4.019 2.003 6.778 2.003 10.764v10.012c0 1.668-.415 3.212-.501 4.756-.088 1.588-.921 3.139-1.001 4.506-.193 3.282-.274 7.499-1.613 10.513-1.054 2.371-.812 5.94-.812 8.501 0 1.669-2.081 3.598-2.081 5.267 0 2.153-.479 2.753 2.281 2.753 1.774 0-1.161.152.612.223 2.472.099 4.501-4.009 5.664-6.624.72-1.621.853-5.505 1.619-7.227.818-1.841 1.865-8.501 2.428-10.402 1.331-4.491-.431.959 1.164-3.504 1.012-2.835 1.056-3.505 4.505-3.505 2.687 0 5.476-.501 8.038-.501 1.691 0 3.55-.209 5.229 0 .482.061-.964 3.412-1.113 4.006a249.024 249.024 0 00-1.501 6.396c-.921 4.142-2.671 8.753-4.506 12.628-.775 1.635-.452 3.098-.918 4.728-.324 1.134-1.754 2.541-.918 4.005 1.001 1.751 1.28 1.471 2.972 1.471 4.026 0 6.995-14.126 7.285-17.464.437-5.028 8.712-10.416 8.712-15.491m38.52-1.502c.956 3.345.028 8.23.028 11.709 0 3.438 8.361 12.776 6.167 15.519-.763.953.392 3.863.809 4.801m.534 0c2.765 0 4.005-2.375 4.005-4.801 0-3.398-.08-7.18-1.725-10.235-1.005-1.867-2.28-6.104-2.28-8.26 0-1.844-3.863-9.658-.486-5.036 3.801 5.201 9.295 9.378 13.517 14.129 2.504 2.817-.889 8.364 1.006 11.774.999 1.799.495 2.462.495 2.462 2.796 0 3.428-.843 3.552-1.652-1.452-2.429.514-8.958 0-9.714-1.611-2.373.711-6.543-.809-8.987-1.049-1.687.075-1.825-.643-3.588-1.173-2.878.317-2.946 2.262-6.619.711-1.343.617-3.156 1.743-4.281 2.248-2.249 2.129-7.794 3.282-10.905.821-2.216 1.112-3.766 1.112-6.119 0-2.599-1.427-4.357-2.503-6.508" stroke="currentColor" stroke-linecap="round" stroke-linejoin="round"/><path d="M239.695 206.804c5.03 0 9.811 1.077 14.797 1.501 5.766.491 11.97.745 17.633 2.003 2.777.617.472 11.35.111 12.516-.405 1.312-.606 3.594-1.251 4.756-.558 1.003 2.028-2.988 2.531-3.811 1.425-2.332 2.891-4.863 3.754-7.453.593-1.779 2.976-3.32 2.976-5.257 0-5.46-5.843-3.832-10.012-3.755-4.331.08-8.436 1.001-12.794 1.001-4.066 0-8.096-.464-11.737-2.391-1.121-.594-5.006-3.665-5.006-1.614" stroke="currentColor" stroke-linecap="round" stroke-linejoin="round"/><path d="M240.698 204.301c-3.236-.616-6.697-1.406-9.79-2.531-4.767-1.733-9.635-2.025-14.63-2.587-6.179-.695-12.226-3.393-18.412-3.393-4.737 0-9.653-.403-14.268.751-5.861 1.465-12.507.162-17.995 2.754-3.113 1.47-7.4 3.504-10.903 3.504-3.049 0-4.494-1.991-6.369-4.283-1.798-2.198-1.251-5.331-1.251-7.982 0-1.072.748-1.482-.871-3.101.576-.639-4.298-4.047-5.666-4.047" stroke="currentColor" stroke-linecap="round" stroke-linejoin="round"/><path d="M227.68 203.299c-1.525 1.155-2.826 2.504-4.506 3.393-.928.492-1.005 1.517-1.752 2.114-1.525 1.22-.751 5.307-.751 7.009 0 2.144.231 3.791 1.725 5.284 1.753 1.754 3.786-.165 5.395-1.279 1.278-.885 2.514-2.202 3.894-2.892.901-.451 1.94-.462 2.753-1.113 1.002-.801 1.199-5.188.362-6.119-3.259-3.621-2.506-7.899-8.622-7.899M194.639 227.831c0-2.061.828-8.511-2.753-8.511-3.734 0-6.663-.392-10.013-2.253-2.959-1.644-7.988-2.773-5.257-6.87 2.105-3.156 6.182-5.744 10.124-5.896 7.276-.28 11.907 5.623 9.874 12.738-.767 2.686 1.029 4.859 1.029 7.788 0 2.592-7.009 4.896-7.009 1.001M155.59 204.801c-5.249-.896-4.492 3.992-7.259 6.759-1.643 1.644-2.254 3.758-3.143 5.757-2.016 4.538 4.262 6.192 7.399 6.008 2.579-.152 12.792-6.733 9.512-10.013-1.22-1.219-3.75-3.159-5.229-4.005-1.831-1.046-.278-3.636-.278-5.006M139.069 237.342c-3.83 2.336-5.951 5.453-3.504 9.735.858 1.501 4.393-.865 5.201-1.224 1.337-.594 1.88-2.521 2.809-3.504 3.024-3.202 1.736-5.322-1.752-7.26-1.848-1.026-4.126-.553-2.475-3.254 1.599-2.617 4.042-5.822 6.23-8.01M116.541 196.291c2.553.498 4.496 1.501 7.009 1.501M209.38 236.408c-1.1.625-2.568 1.52-3.806 1.864-.968.269-1.913.875-2.941.903-1.1.031-2.378.324-3.46.558-1.097.237-2.219.303-3.325.519-2.261.442-4.382.826-6.708.826-2.037 0-4.151.274-6.189.346-2.409.086-4.637.128-6.785-.826-1.698-.755-3.695-.762-5.362-1.595M139.667 187.799c-1.176 2.402-1.428 5.263-.346 7.697.334.752 2.285 1.298 2.98 1.298.885 0 1.856.416 2.729.077.684-.266 1.169-.542 1.768-.942 1.074-.716 1.519-1.135 1.519-2.508 0-.731-1.032-1.819-1.634-2.163-.475-.271-3.044-3.456-2.345-3.805M139.839 187.971c.21-.288.385-.711.692-.865M115.621 190.22c-.377-.285-1.18-1.412-1.653-1.547-.721-.206-1.461-.529-2.153-.836-.959-.426-1.367 1.66-1.076 2.21.425.803 1.368 1.693 2.325 1.73 1.42.055 3.413.536 4.114-.865" stroke="currentColor" stroke-linecap="round" stroke-linejoin="round"/><path d="M239.161 241.65c2.841 1.55 5.85 1.152 8.999 1.152 3.452 0 6.843-.277 10.278-.384 2.149-.067 4.278-.659 6.44-.298 2.553.425 4.938 2.074 7.293 3.07 4.461 1.887 18.854 8.696 11.984 15.567-1.944 1.944-4.087 3.637-6.141 5.459-2.805 2.488-4.968 5.154-8.146 7.292-6.29 4.233-12.815 9.298-19.661 12.582-7.13 3.419-14.322 6.767-21.878 9.212-11.284 3.65-23.359 3.176-35.057 3.838-18.822 1.065-38.13 2.775-56.893-.299-7.736-1.267-14.46-6.567-20.343-11.429-4.12-3.406-7.581-9.618-8.444-14.97-.677-4.195-2.257-8.421-1.535-12.751.646-3.879 2.924-6.602 5.672-9.212 1.923-1.827 4.479-1.49 6.909-1.536 2.956-.056 5.865-.767 8.828-.767M318.614 90.805c-3.219 2.209-5.115 5.097-7.677 7.975-2.451 2.753-5.199 5.003-8.06 7.293-1.108.886-2.803 1.296-3.37 2.687-.365.897-1.099 1.702-2.004 2.004M290.978 90.805c-3.812 4.505-8.604 8.2-13.05 12.069-3.713 3.232-8.075 5.749-12.282 8.274M262.191 84.28c-3.996 5.772-8.692 11.322-13.435 16.483-4.196 4.567-8.125 9.37-13.434 12.688M234.938 83.895c-2.96 5.233-6.939 9.71-10.918 14.202-3.232 3.649-6.68 7.918-10.96 10.364M208.455 86.199c-2.254 6.359-5.761 12.658-9.02 18.573-.898 1.628-2.462 5.504-4.414 5.992M186.576 82.744c-3.747 5.044-7.157 10.173-11.515 14.756-2.433 2.559-5.226 4.711-7.592 7.336-.788.875-1.636 2.095-2.772 2.473M165.082 86.582c-1.809 2.274-3.381 4.831-5.438 6.888-2.991 2.992-6.507 5.675-9.873 8.231-1.986 1.508-3.97 3.031-6.013 4.457-.386.269-1.322 1.421-1.322 1.151M140.517 84.28c-5.693 6.445-11.863 12.684-19.021 17.485-3.071 2.061-6.335 3.856-9.297 6.078-.797.597-1.454 1.458-2.388 1.77M115.951 83.512c-3.71 2.311-6.619 5.746-9.596 8.914-4.036 4.294-8.048 8.658-12.474 12.559-2.737 2.412-5.553 4.654-8.573 6.696-1.316.891-1.983 1.788-1.983-.149M87.548 81.209c-2.809 4.868-6.46 9.039-9.959 13.413-1.763 2.204-5.206 4.835-5.778 7.698" stroke="currentColor" stroke-linecap="round" stroke-linejoin="round"/><path d="M315.544 100.4c-15.074 0-30.155-.139-45.228.021-15.506.165-31.018 1.582-46.507 2.282-16.699.755-33.496.637-50.155-.789-11.956-1.023-23.873-2.963-35.824-3.817" stroke="currentColor" stroke-linecap="round" stroke-linejoin="round"/><path d="M274.858 96.179c-12.435 1.153-24.839.672-37.317.469-21.29-.347-42.416.619-63.674 1.45-16.959.663-33.892 1.22-50.836 0-5.326-.384-10.718-.622-15.908-1.92M249.524 88.885c-9.786 1.331-19.521 1.281-29.384.917-17.715-.653-35.414-2.039-53.14-2.367-16.575-.306-33.171-.085-49.749-.085-7.471 0-14.957.19-22.411-.384M246.071 82.36c-20.081 1.903-39.933.088-60.07-.576-11.199-.369-22.381-.575-33.585-.575-2.236 0-6.952-.867-8.828.383M252.98 106.158c-10.894 2.075-21.581 4.149-32.711 4.798-30.769 1.794-61.614 2.653-92.418 3.647M142.819 104.623c-9.657 3.157-20.197 3.6-30.258 3.838-8.853.21-17.694.384-26.549.384-3.884 0-8.532.688-12.282-.384M137.446 79.673c-8.685 1.086-17.265 1.568-26.015 1.834-4.299.131-8.601.085-12.901.085-1.462 0-2.73.064-4.073-.383M116.334 102.319c-18.725 3.257-37.576.898-56.423 0M105.587 93.492c-8.046-.086-16.165-.768-24.182-.768M299.807 89.653c-12.745-4.166-26.751-3.91-39.918-5.373M325.14 100.401c-3.938 1.335-8.061 1.993-12.027 3.241a468.174 468.174 0 01-15.993 4.734c-11.308 3.12-22.808 5.075-34.545 5.075" stroke="currentColor" stroke-linecap="round" stroke-linejoin="round"/></svg>